<svg id="OBJECTS" xmlns="http://www.w3.org/2000/svg" viewBox="0 0 410.98 800"><defs><style>.cls-1{fill:#825534;}.cls-2{fill:#e6d4a7;}</style></defs><title>Artboard 1</title><g id="_Group_" data-name="&lt;Group&gt;"><g id="_Group_2" data-name="&lt;Group&gt;"><g id="_Group_3" data-name="&lt;Group&gt;"><g id="_Group_4" data-name="&lt;Group&gt;"><g id="_Group_5" data-name="&lt;Group&gt;"><path id="_Path_" data-name="&lt;Path&gt;" class="cls-1" d="M149.6,163q39.36-1.26,78.74-.29c5.4.13,5.4-8.27,0-8.39q-39.37-.95-78.74.29c-5.39.17-5.41,8.57,0,8.39Z"/></g><g id="_Group_6" data-name="&lt;Group&gt;"><path id="_Path_2" data-name="&lt;Path&gt;" class="cls-1" d="M293,166.17c21.65,1.9,43.84,3.91,64.85,9.8,3.91,1.1,11.37,2.45,14,6,.7.94.34.76.54-.07-.25,1-2.07,1.8-2.84,2.29-9.52,6-23.45,7.36-34.26,9.14-19.26,3.18-38.77,4.94-58.23,6.26a1251,1251,0,0,1-151.87.86c-20.8-1.12-41.63-2.72-62.27-5.58-13.33-1.85-27.49-3.71-40.1-8.69-1.4-.55-7.07-2.71-7.06-4.14s9.34-4.49,10.92-5c22.31-7.17,46.66-9,69.85-11,5.34-.46,5.39-8.86,0-8.39-8.84.76-99.43,5.74-88.2,28.26,4,8.08,18.09,10.49,25.77,12.29,19.49,4.57,39.63,6.68,59.54,8.42,59,5.16,118.74,5.38,177.83,1.71,22.72-1.41,45.51-3.4,68-7.24,11.6-2,26.46-3.74,36.3-10.91,10.23-7.46,1.75-15.88-6.91-19.39-23.35-9.46-51-10.85-75.82-13-5.38-.47-5.35,7.93,0,8.39Z"/></g><g id="_Group_7" data-name="&lt;Group&gt;"><path id="_Path_3" data-name="&lt;Path&gt;" class="cls-1" d="M8.09,185.85A548.18,548.18,0,0,0,69.32,303.57c3,4.43,10.32.23,7.25-4.24A539.33,539.33,0,0,1,16.19,183.62c-1.88-5-10-2.84-8.09,2.23Z"/></g><g id="_Group_8" data-name="&lt;Group&gt;"><path id="_Path_4" data-name="&lt;Path&gt;" class="cls-1" d="M372.19,185c-16.15,40.76-35.89,79-61.9,114.35-3.2,4.36,4.08,8.55,7.25,4.24,26.45-36,46.33-74.92,62.75-116.35,2-5-6.13-7.2-8.09-2.23Z"/></g><g id="_Group_9" data-name="&lt;Group&gt;"><path id="_Path_5" data-name="&lt;Path&gt;" class="cls-2" d="M71.91,307.76c16.67,8.57,35.27,11,53.68,13.19a488,488,0,0,0,64.66,3.22,499.7,499.7,0,0,0,124.34-18c5.2-1.43,3-9.53-2.23-8.09a490.25,490.25,0,0,1-118.95,17.63,487.69,487.69,0,0,1-58.4-2.15c-19.79-1.93-40.92-3.83-58.87-13.05-4.8-2.47-9,4.77-4.24,7.25Z"/></g><g id="_Group_10" data-name="&lt;Group&gt;"><path id="_Path_6" data-name="&lt;Path&gt;" class="cls-2" d="M71.86,302.25c-8.67,12.11-2.79,26.39,5,37.25,10.72,15,18.39,29.62,15.65,48.76C90,405.83,77.12,417.61,70.86,433.55c-5.52,14.07-4.07,29.41,2.72,42.74,2.45,4.81,9.7.57,7.25-4.24-8.19-16.06-5.27-32.24,4-47C92.38,413,99.32,402,101,387.53a64.91,64.91,0,0,0-7-37.52c-6.64-12.6-25.87-28.27-14.95-43.53,3.15-4.4-4.13-8.6-7.25-4.24Z"/></g><g id="_Group_11" data-name="&lt;Group&gt;"><path id="_Path_7" data-name="&lt;Path&gt;" class="cls-2" d="M310.52,306.75c10.47,14.86,1.11,31.94-8.07,44.78-8.47,11.84-17.86,23.59-19.66,38.54-1.67,13.85,6.11,23.26,11.87,35,7.62,15.49,8.43,33.29,3.54,49.69-1.55,5.19,6.55,7.4,8.09,2.23a77.19,77.19,0,0,0,.06-45.07c-5.14-16.44-19.54-29.27-13.79-47.6,8.19-26.08,46.36-51.78,25.21-81.8-3.09-4.38-10.37-.19-7.25,4.24Z"/></g><g id="_Group_12" data-name="&lt;Group&gt;"><path id="_Path_8" data-name="&lt;Path&gt;" class="cls-2" d="M75.56,479.31c16.21,10.32,34.7,15.17,53.49,18.25a384.57,384.57,0,0,0,63.31,5.09,387.17,387.17,0,0,0,61.7-5.18c17.69-2.91,36.28-6,50.18-18.2,4.07-3.57-1.89-9.48-5.94-5.94C285,485,265.47,487.27,248.67,489.89a373.53,373.53,0,0,1-59.51,4.37c-35.83-.2-78.32-2.42-109.36-22.19-4.57-2.91-8.79,4.35-4.24,7.25Z"/></g><g id="_Group_13" data-name="&lt;Group&gt;"><path id="_Path_9" data-name="&lt;Path&gt;" class="cls-1" d="M72.57,474.59,28.19,583.67C14.9,616.33,1.66,649.88,9.88,685.57c9.37,40.66,34.64,74.45,74.32,88.34,34.83,12.19,72.73,17.49,109.55,17.66,5.4,0,5.41-8.37,0-8.39a346.53,346.53,0,0,1-93.56-13c-16.45-4.71-31.93-10.28-45-21.57-17.7-15.32-29.37-36.3-35.57-58.7-9.71-35.07,1.72-67.29,14.91-99.76q23-56.68,46.11-113.32c2-5-6.08-7.18-8.09-2.23Z"/></g><g id="_Group_14" data-name="&lt;Group&gt;"><path id="_Path_10" data-name="&lt;Path&gt;" class="cls-1" d="M298.33,476.83l40.69,100c12.83,31.52,29.68,66.09,23.17,101-4.57,24.55-15.49,48.41-33.38,66.09-11.26,11.13-23.78,17.69-38.68,22.72C256.59,778,220.57,783,185.24,783.18c-5.4,0-5.41,8.42,0,8.39a353.28,353.28,0,0,0,98.37-14.05c17.1-5.07,32.56-11.25,46.1-23C347.1,739.48,359.1,719,366,697.15c5-15.91,7.23-32,5.1-48.66-2.3-18-8.41-35.2-15.08-52-16.18-40.76-33-81.27-49.56-121.89-2-4.94-10.13-2.78-8.09,2.23Z"/></g><g id="_Group_15" data-name="&lt;Group&gt;"><path id="_Path_11" data-name="&lt;Path&gt;" class="cls-1" d="M296.12,379.24c5.08-6.19,13.1-10.39,20.94-6.58,7.43,3.61,9,12.92,8.74,20.34-.67,19-22.62,21-34,9.57-3.83-3.82-9.76,2.11-5.94,5.94,16.65,16.64,47.63,10.92,48.38-15.5.32-11.47-3.5-23.93-15-28.48-10.77-4.27-22,.15-29,8.78-3.4,4.14,2.51,10.12,5.94,5.94Z"/></g><g id="_Group_16" data-name="&lt;Group&gt;"><path id="_Path_12" data-name="&lt;Path&gt;" class="cls-1" d="M303.47,386.11c-.28,7.68,6.76,12.76,13,15.72,5.42,2.55,14.45,6,19.22.54,3.56-4-2.35-10-5.94-5.94-1.64,1.86-9.2-1.9-10.56-2.61-2.87-1.5-7.5-4-7.36-7.72.2-5.4-8.2-5.39-8.39,0Z"/></g><g id="_Group_17" data-name="&lt;Group&gt;"><path id="_Path_13" data-name="&lt;Path&gt;" class="cls-1" d="M313.54,400.5c3.33,20.92,22.65,35.82,43.87,32.59,10.2-1.56,20-7.29,24.44-16.93,4.61-10.09,1.89-22.2,8.64-31.42,3.2-4.36-4.08-8.55-7.25-4.24-9.73,13.28-2,33.72-19.25,42-19,9.12-39.27-4.83-42.36-24.22-.85-5.32-8.94-3.06-8.09,2.23Z"/></g><g id="_Group_18" data-name="&lt;Group&gt;"><path id="_Path_14" data-name="&lt;Path&gt;" class="cls-1" d="M328.24,371.25a53.16,53.16,0,0,1,13.52-24.68c8.16-8.26,16.59-10.63,27.9-10.23,5.4.19,5.4-8.2,0-8.39-12.6-.45-22.44,2.15-31.91,10.83A61,61,0,0,0,320.14,369c-1.33,5.24,6.76,7.47,8.09,2.23Z"/></g><g id="_Group_19" data-name="&lt;Group&gt;"><path id="_Path_15" data-name="&lt;Path&gt;" class="cls-1" d="M367.58,328.89a14.63,14.63,0,0,1-.11,3.63h8.09a3.49,3.49,0,0,1,.06-2.11l-8.24-1.12a53.92,53.92,0,0,1,.21,7.43H376q0-4.78,0-9.56h-8.39v9.14c0,5.4,8.39,5.41,8.39,0v-9.14c0-5.4-8.39-5.41-8.39,0q0,4.78,0,9.56c0,5.42,8.18,5.38,8.39,0a53.94,53.94,0,0,0-.21-7.43,4.2,4.2,0,0,0-8.24-1.12,12.12,12.12,0,0,0-.06,6.57c1,3.8,7.34,4.19,8.09,0a23.52,23.52,0,0,0,.41-5.86,4.3,4.3,0,0,0-4.2-4.2,4.23,4.23,0,0,0-4.2,4.2Z"/></g><g id="_Group_20" data-name="&lt;Group&gt;"><path id="_Path_16" data-name="&lt;Path&gt;" class="cls-1" d="M378.93,376.85l12.22,10a4.32,4.32,0,0,0,5.94,0c1.48-1.48,1.76-4.49,0-5.94l-12.22-10a4.32,4.32,0,0,0-5.94,0c-1.48,1.48-1.76,4.49,0,5.94Z"/></g><g id="_Group_21" data-name="&lt;Group&gt;"><path id="_Path_17" data-name="&lt;Path&gt;" class="cls-1" d="M392.92,380.76l7.66-7.2a4.2,4.2,0,0,0-5.94-5.94l-7.66,7.2a4.2,4.2,0,0,0,5.94,5.94Z"/></g><g id="_Group_22" data-name="&lt;Group&gt;"><path id="_Path_18" data-name="&lt;Path&gt;" class="cls-1" d="M385,329A61.89,61.89,0,0,1,373,326.81c-5.21-1.47-7.43,6.63-2.23,8.09A73.39,73.39,0,0,0,385,337.39c5.39.41,5.36-8,0-8.39Z"/></g><g id="_Group_23" data-name="&lt;Group&gt;"><path id="_Path_19" data-name="&lt;Path&gt;" class="cls-1" d="M294.39,384.49c-15.36,6.95-32.19,8.42-48.78,10-17.89,1.66-35.81,3.19-53.77,3.58-34.62.77-69.72-3-101.46-17.61-4.87-2.25-9.14,5-4.24,7.25,33.15,15.3,69.5,19.56,105.7,18.76,19.54-.43,39-2.18,58.46-4,16.64-1.58,33-3.71,48.32-10.66,4.91-2.22.65-9.46-4.24-7.25Z"/></g><g id="_Group_24" data-name="&lt;Group&gt;"><path id="_Path_20" data-name="&lt;Path&gt;" class="cls-2" d="M154.89,351.12a262.84,262.84,0,0,1-41.51-4.82c-11.81-2.37-27.81-4.36-36.24-13.76-1.81-2-4.77,1-3,3,8.53,9.51,23.13,11.66,35,14.2a269.06,269.06,0,0,0,45.7,5.61c2.7.11,2.7-4.09,0-4.2Z"/></g><g id="_Group_25" data-name="&lt;Group&gt;"><path id="_Path_21" data-name="&lt;Path&gt;" class="cls-2" d="M192.62,356.08h11.91c2.7,0,2.71-4.2,0-4.2H192.62c-2.7,0-2.71,4.2,0,4.2Z"/></g><g id="_Group_26" data-name="&lt;Group&gt;"><path id="_Path_22" data-name="&lt;Path&gt;" class="cls-2" d="M241.5,354.76c26.62-2.16,54.25-4.89,76.66-20.79,2.19-1.55.09-5.19-2.12-3.62-21.82,15.48-48.62,18.12-74.54,20.22-2.67.22-2.7,4.42,0,4.2Z"/></g><g id="_Group_27" data-name="&lt;Group&gt;"><path id="_Path_23" data-name="&lt;Path&gt;" class="cls-2" d="M134,456.72c-19.86-5.7-40.17-11.87-55.07-27-1.9-1.93-4.87,1-3,3,15.41,15.61,36.36,22.14,56.92,28,2.6.75,3.71-3.3,1.12-4Z"/></g><g id="_Group_28" data-name="&lt;Group&gt;"><path id="_Path_24" data-name="&lt;Path&gt;" class="cls-2" d="M163.56,466.69A67.57,67.57,0,0,0,184,468.47c2.68-.18,2.7-4.38,0-4.2a63.76,63.76,0,0,1-19.34-1.63c-2.62-.63-3.74,3.41-1.12,4Z"/></g><g id="_Group_29" data-name="&lt;Group&gt;"><path id="_Path_25" data-name="&lt;Path&gt;" class="cls-2" d="M243,466c21.78-5.86,44.53-11.46,60.07-29,1.78-2-1.17-5-3-3C285.07,451,263,456.28,241.9,462c-2.61.7-1.5,4.75,1.12,4Z"/></g><g id="_Group_30" data-name="&lt;Group&gt;"><path id="_Path_26" data-name="&lt;Path&gt;" class="cls-2" d="M276.5,406.91a18.61,18.61,0,0,0,4.55,10.79c1.77,2,4.73-.93,3-3a13.76,13.76,0,0,1-3.33-7.82c-.24-2.67-4.44-2.69-4.2,0Z"/></g><g id="_Group_31" data-name="&lt;Group&gt;"><path id="_Path_27" data-name="&lt;Path&gt;" class="cls-2" d="M121.13,329.18c-17.26-3-34.51-6.51-48.92-17.06-2.18-1.6-4.28,2-2.12,3.62C84.77,326.5,102.4,330.21,120,333.23c2.64.45,3.78-3.59,1.12-4Z"/></g><g id="_Group_32" data-name="&lt;Group&gt;"><path id="_Path_28" data-name="&lt;Path&gt;" class="cls-2" d="M113.18,335.74a141.3,141.3,0,0,1-36.87-11.46c-2.43-1.14-4.56,2.48-2.12,3.62a145.38,145.38,0,0,0,37.87,11.89c2.64.44,3.78-3.6,1.12-4Z"/></g><g id="_Group_33" data-name="&lt;Group&gt;"><path id="_Path_29" data-name="&lt;Path&gt;" class="cls-2" d="M117.19,355.75a53,53,0,0,1-21.93-2.45c-2.57-.85-3.67,3.21-1.12,4a55.94,55.94,0,0,0,23,2.6c2.67-.25,2.69-4.45,0-4.2Z"/></g><g id="_Group_34" data-name="&lt;Group&gt;"><path id="_Path_30" data-name="&lt;Path&gt;" class="cls-2" d="M117.73,366.07l-18.52-2.69c-2.64-.38-3.78,3.66-1.12,4l18.52,2.69c2.64.38,3.78-3.66,1.12-4Z"/></g><g id="_Group_35" data-name="&lt;Group&gt;"><path id="_Path_31" data-name="&lt;Path&gt;" class="cls-2" d="M118.45,379l-17.94-5.7c-2.58-.82-3.69,3.23-1.12,4l17.94,5.7c2.58.82,3.68-3.23,1.12-4Z"/></g><g id="_Group_36" data-name="&lt;Group&gt;"><path id="_Path_32" data-name="&lt;Path&gt;" class="cls-2" d="M117.73,408.95l-26.5-9.16c-2.56-.88-3.66,3.17-1.12,4l26.5,9.16c2.56.88,3.66-3.17,1.12-4Z"/></g><g id="_Group_37" data-name="&lt;Group&gt;"><path id="_Path_33" data-name="&lt;Path&gt;" class="cls-2" d="M119.75,423.39a160.73,160.73,0,0,1-29.22-13.76c-2.32-1.39-4.44,2.24-2.12,3.62a166.28,166.28,0,0,0,30.22,14.18c2.55.9,3.65-3.15,1.12-4Z"/></g><g id="_Group_38" data-name="&lt;Group&gt;"><path id="_Path_34" data-name="&lt;Path&gt;" class="cls-2" d="M115.16,434.51a110.31,110.31,0,0,1-27.62-13.79c-2.23-1.53-4.33,2.1-2.12,3.62A114.47,114.47,0,0,0,114,438.56c2.57.86,3.67-3.19,1.12-4Z"/></g><g id="_Group_39" data-name="&lt;Group&gt;"><path id="_Path_35" data-name="&lt;Path&gt;" class="cls-2" d="M104.62,458.88A137,137,0,0,1,75.52,443.1c-2.21-1.56-4.31,2.07-2.12,3.62a141.49,141.49,0,0,0,30.11,16.2c2.52,1,3.61-3.07,1.12-4Z"/></g><g id="_Group_40" data-name="&lt;Group&gt;"><path id="_Path_36" data-name="&lt;Path&gt;" class="cls-2" d="M109.17,471.66a154.73,154.73,0,0,1-30.83-13.92c-2.33-1.37-4.45,2.25-2.12,3.62a159.82,159.82,0,0,0,31.84,14.34c2.57.84,3.68-3.21,1.12-4Z"/></g><g id="_Group_41" data-name="&lt;Group&gt;"><path id="_Path_37" data-name="&lt;Path&gt;" class="cls-1" d="M39.48,216.7l11.67,24.59c1.16,2.44,4.78.31,3.62-2.12L43.11,214.58c-1.16-2.44-4.78-.31-3.62,2.12Z"/></g><g id="_Group_42" data-name="&lt;Group&gt;"><path id="_Path_38" data-name="&lt;Path&gt;" class="cls-1" d="M56.32,249.95a398.67,398.67,0,0,0,33.54,58.4c1.53,2.21,5.17.11,3.62-2.12a398.67,398.67,0,0,1-33.54-58.4c-1.14-2.45-4.76-.32-3.62,2.12Z"/></g><g id="_Group_43" data-name="&lt;Group&gt;"><path id="_Path_39" data-name="&lt;Path&gt;" class="cls-1" d="M149.6,226.81l19.87.68c2.7.09,2.7-4.1,0-4.2l-19.87-.68c-2.7-.09-2.7,4.1,0,4.2Z"/></g><g id="_Group_44" data-name="&lt;Group&gt;"><path id="_Path_40" data-name="&lt;Path&gt;" class="cls-1" d="M231,227.39a559.54,559.54,0,0,0,107.11-14.7c2.63-.62,1.51-4.67-1.12-4a553.62,553.62,0,0,1-106,14.55c-2.69.11-2.71,4.3,0,4.2Z"/></g><g id="_Group_45" data-name="&lt;Group&gt;"><path id="_Path_41" data-name="&lt;Path&gt;" class="cls-1" d="M293.8,291.92,282.91,308c-1.52,2.24,2.12,4.35,3.62,2.12L297.43,294c1.52-2.24-2.12-4.35-3.62-2.12Z"/></g><g id="_Group_46" data-name="&lt;Group&gt;"><path id="_Path_42" data-name="&lt;Path&gt;" class="cls-2" d="M277.43,331.49A23,23,0,0,0,267.86,311c-2.18-1.6-4.27,2-2.12,3.62a18.78,18.78,0,0,1,7.49,16.84c-.21,2.69,4,2.68,4.2,0Z"/></g><g id="_Group_47" data-name="&lt;Group&gt;"><path id="_Path_43" data-name="&lt;Path&gt;" class="cls-2" d="M242.39,476.77a18.56,18.56,0,0,1,1.83,14.93c-.76,2.6,3.29,3.71,4,1.12A22.84,22.84,0,0,0,246,474.65c-1.36-2.33-5-.22-3.62,2.12Z"/></g><g id="_Group_48" data-name="&lt;Group&gt;"><path id="_Path_44" data-name="&lt;Path&gt;" class="cls-2" d="M218.29,470.54a27.46,27.46,0,0,1,7,20.41c-.16,2.7,4,2.69,4.2,0a31.75,31.75,0,0,0-8.22-23.38c-1.8-2-4.76,1-3,3Z"/></g><g id="_Group_49" data-name="&lt;Group&gt;"><path id="_Path_45" data-name="&lt;Path&gt;" class="cls-1" d="M86.35,507.75,78.85,522.2c-1.24,2.39,2.38,4.52,3.62,2.12L90,509.87c1.24-2.39-2.38-4.52-3.62-2.12Z"/></g><g id="_Group_50" data-name="&lt;Group&gt;"><path id="_Path_46" data-name="&lt;Path&gt;" class="cls-1" d="M73.75,533.82A787.75,787.75,0,0,1,36,609.9c-1.33,2.35,2.29,4.47,3.62,2.12a787.71,787.71,0,0,0,37.72-76.08c1.06-2.45-2.56-4.6-3.62-2.12Z"/></g><g id="_Group_51" data-name="&lt;Group&gt;"><path id="_Path_47" data-name="&lt;Path&gt;" class="cls-1" d="M20.61,642.45c42-46.38,108.22-51.28,166.58-56.56,31.42-2.84,62.78-4,93.8,2.79a226.36,226.36,0,0,1,44.61,14.7c11.75,5.31,25.4,11.37,30.88,23.83,2.17,4.93,9.41.67,7.25-4.24-8.32-18.91-33.69-27.58-51.62-34a236.43,236.43,0,0,0-75.33-13.82c-27.18-.55-54.47,2.6-81.45,5.46-26,2.76-52.28,6.52-77.07,15.32-24,8.54-46.36,21.59-63.58,40.62-3.62,4,2.3,10,5.94,5.94Z"/></g><g id="_Group_52" data-name="&lt;Group&gt;"><path id="_Path_48" data-name="&lt;Path&gt;" class="cls-1" d="M17.15,634.58c-7.52,25.53,27.05,39.14,45.42,46,26.34,9.86,54.6,13.55,82.51,15.57,56.46,4.07,116.41,4.68,169.95-16.27,21.72-8.5,59.29-24.7,50.33-54.57-1.55-5.16-9.65-3-8.09,2.23,5.47,18.24-13.49,29.47-27.11,36.43A212.78,212.78,0,0,1,285.5,680.5c-29.73,7.54-60.55,9.55-91.12,9.31-30.31-.24-61.2-1.58-91.08-7a213.54,213.54,0,0,1-43.78-12.38C46.8,665.16,20,654.68,25.24,636.81c1.53-5.19-6.57-7.41-8.09-2.23Z"/></g><g id="_Group_53" data-name="&lt;Group&gt;"><path id="_Path_49" data-name="&lt;Path&gt;" class="cls-1" d="M168.73,616.21a15.61,15.61,0,0,0-16.36,7.64c-3.09,5.64-1.7,14.26,5.87,14.6,2.7.12,2.69-4.07,0-4.2-6-.27-2.67-8.57-.23-10.94a11.22,11.22,0,0,1,9.59-3.06c2.64.45,3.78-3.6,1.12-4Z"/></g><g id="_Group_54" data-name="&lt;Group&gt;"><path id="_Path_50" data-name="&lt;Path&gt;" class="cls-1" d="M219.58,612.63c4.55-3.29,10.72,1.46,13.25,5.46,3.48,5.51-6.09,8.06-9.4,10.05-2.31,1.39-.2,5,2.12,3.62,3.49-2.11,7.79-3.09,10.42-6.41a7.82,7.82,0,0,0,.49-9.38c-3.7-5.88-12.39-11.73-19-7-2.17,1.57-.08,5.21,2.12,3.62Z"/></g><g id="_Group_55" data-name="&lt;Group&gt;"><path id="_Path_51" data-name="&lt;Path&gt;" class="cls-1" d="M127.74,605.33c-12.06,2.47-25.81,7.29-29.53,20.49-3.61,12.8,6.65,21.27,17.22,26,2.45,1.09,4.58-2.53,2.12-3.62-10.17-4.53-20.33-13.11-13.65-25.15,4.94-8.91,15.7-11.75,25-13.64,2.64-.54,1.53-4.59-1.12-4Z"/></g><g id="_Group_56" data-name="&lt;Group&gt;"><path id="_Path_52" data-name="&lt;Path&gt;" class="cls-1" d="M267.45,600.95c13.93,4.33,29.21,9.78,33.6,25.42,5.1,18.15-16.4,22.07-29.07,26.67-2.52.91-1.43,5,1.12,4,13.23-4.8,35.44-9.25,32.9-27.79-2.67-19.52-20.83-27.23-37.43-32.4-2.59-.8-3.69,3.25-1.12,4Z"/></g><g id="_Group_57" data-name="&lt;Group&gt;"><path id="_Path_53" data-name="&lt;Path&gt;" class="cls-1" d="M330.56,622.22a13.43,13.43,0,0,1-4.61,16.55c-2.22,1.51-.12,5.15,2.12,3.62a17.75,17.75,0,0,0,6.12-22.29c-1.14-2.45-4.75-.32-3.62,2.12Z"/></g><g id="_Group_58" data-name="&lt;Group&gt;"><path id="_Path_54" data-name="&lt;Path&gt;" class="cls-1" d="M76.68,619.87c-13.36,7.13-32.57,31.28-14.32,43C84.85,677.28,113.3,683.33,139.7,683c2.7,0,2.71-4.23,0-4.2A145.18,145.18,0,0,1,80,667.12a125.28,125.28,0,0,1-13-6.42c-6.47-3.75-9.14-7.29-7-15.06,2.73-9.77,9.94-17.46,18.72-22.15,2.38-1.27.27-4.9-2.12-3.62Z"/></g><g id="_Group_59" data-name="&lt;Group&gt;"><path id="_Path_55" data-name="&lt;Path&gt;" class="cls-1" d="M155.22,601.55c23-4.44,46.47-8.56,69.41-1.71,2.59.77,3.7-3.27,1.12-4-23.65-7.06-47.94-2.87-71.64,1.71-2.65.51-1.53,4.56,1.12,4Z"/></g><g id="_Group_60" data-name="&lt;Group&gt;"><path id="_Path_56" data-name="&lt;Path&gt;" class="cls-1" d="M159.52,658.77a219.71,219.71,0,0,0,95.25-17.32c2.48-1,.34-4.67-2.12-3.62a215,215,0,0,1-93.13,16.75c-2.7-.11-2.7,4.08,0,4.2Z"/></g><g id="_Group_61" data-name="&lt;Group&gt;"><path id="_Path_57" data-name="&lt;Path&gt;" class="cls-1" d="M310.52,654C274.75,669.17,236.06,674,197.8,678.47c-2.65.31-2.68,4.51,0,4.2,39.06-4.6,78.33-9.56,114.84-25,2.48-1,.34-4.67-2.12-3.62Z"/></g><g id="_Group_62" data-name="&lt;Group&gt;"><path id="_Path_58" data-name="&lt;Path&gt;" class="cls-1" d="M45,695.37a68.25,68.25,0,0,1-27.69-17.88c-1.86-2-4.82,1-3,3a72.75,72.75,0,0,0,29.54,19c2.56.88,3.66-3.18,1.12-4Z"/></g><g id="_Group_63" data-name="&lt;Group&gt;"><path id="_Path_59" data-name="&lt;Path&gt;" class="cls-1" d="M68.9,705.94a243.7,243.7,0,0,0,36.41,3.71c2.7.07,2.7-4.13,0-4.2A236.22,236.22,0,0,1,70,701.89c-2.64-.47-3.77,3.57-1.12,4Z"/></g><g id="_Group_64" data-name="&lt;Group&gt;"><path id="_Path_60" data-name="&lt;Path&gt;" class="cls-1" d="M105.83,761.06a299.08,299.08,0,0,0,113.78,11.08,442,442,0,0,0,54.69-9.26c19.2-4.35,39.74-8.13,58-15.5,2.47-1,1.39-5.06-1.12-4-16.84,6.79-35.64,10.28-53.3,14.41-19.22,4.49-38.64,8.28-58.3,10.2A295.9,295.9,0,0,1,106.95,757c-2.6-.77-3.7,3.28-1.12,4Z"/></g><g id="_Group_65" data-name="&lt;Group&gt;"><path id="_Path_61" data-name="&lt;Path&gt;" class="cls-1" d="M289.11,704l63.64-16c2.62-.66,1.51-4.71-1.12-4L288,700c-2.62.66-1.51,4.71,1.12,4Z"/></g><g id="_Group_66" data-name="&lt;Group&gt;"><path id="_Path_62" data-name="&lt;Path&gt;" class="cls-1" d="M58.64,741.93a298.49,298.49,0,0,0,21.39,25c1.87,2,4.84-1,3-3a288.86,288.86,0,0,1-20.73-24.13c-1.62-2.11-5.27,0-3.62,2.12Z"/></g></g><g id="_Group_67" data-name="&lt;Group&gt;"><g id="_Group_68" data-name="&lt;Group&gt;"><g id="_Group_69" data-name="&lt;Group&gt;"><g id="_Group_70" data-name="&lt;Group&gt;"><path id="_Path_63" data-name="&lt;Path&gt;" class="cls-1" d="M284.73,116c18.33,11.54,10.74,37.13.36,51.52-5.55,7.7-13.53,13.95-23,15.85-10.67,2.15-23-2.32-26.59-13.27-1.68-5.11-9.79-2.92-8.09,2.23,9.23,28,45.2,22.6,61.14,4.25s24.82-52.45.39-67.83c-4.59-2.89-8.8,4.37-4.24,7.25Z"/></g><g id="_Group_71" data-name="&lt;Group&gt;"><path id="_Path_64" data-name="&lt;Path&gt;" class="cls-1" d="M289.58,111.4c1-10.5-8.84-16.1-18.24-15.08C261,97.44,251.1,104,244,111.25c-15.85,16.33-24,42.27-15.48,64,2,5,10.08,2.81,8.09-2.23-5.9-15-2.86-31.3,5.11-44.93a53.47,53.47,0,0,1,14.18-16.16c4.88-3.61,26.53-14.3,25.25-.53-.5,5.38,7.9,5.34,8.39,0Z"/></g><g id="_Group_72" data-name="&lt;Group&gt;"><path id="_Path_65" data-name="&lt;Path&gt;" class="cls-1" d="M246.76,132.11a82.1,82.1,0,0,1,8.31-14.45c3.66-5.2,7.92-13,15-13.14,2.7-.06,2.71-4.25,0-4.2-6.33.13-10.3,4.05-14,8.84-5,6.52-9.7,13.27-13,20.82-1.07,2.45,2.55,4.59,3.62,2.12Z"/></g><g id="_Group_73" data-name="&lt;Group&gt;"><path id="_Path_66" data-name="&lt;Path&gt;" class="cls-1" d="M240.32,139.39a42.53,42.53,0,0,0-.66,10.66c.18,2.68,4.38,2.7,4.2,0a38.08,38.08,0,0,1,.51-9.54c.49-2.64-3.56-3.77-4-1.12Z"/></g><g id="_Group_74" data-name="&lt;Group&gt;"><path id="_Path_67" data-name="&lt;Path&gt;" class="cls-1" d="M240.94,161.33a15.47,15.47,0,0,0,10.16,12.3c2.54.94,3.63-3.12,1.12-4a11.4,11.4,0,0,1-7.23-9.37c-.36-2.66-4.41-1.53-4,1.12Z"/></g><g id="_Group_75" data-name="&lt;Group&gt;"><path id="_Path_68" data-name="&lt;Path&gt;" class="cls-1" d="M254.42,178.86c2.71,4.08,6.29,7.78,11.53,7.79,2.7,0,2.7-4.19,0-4.2-3.65,0-6-2.91-7.9-5.71-1.49-2.24-5.12-.14-3.62,2.12Z"/></g><g id="_Group_76" data-name="&lt;Group&gt;"><path id="_Path_69" data-name="&lt;Path&gt;" class="cls-1" d="M274.88,141.13c5.37-3.1,12.32-5.85,15.44-11.58a15.55,15.55,0,0,0-1.46-16.86c-1.58-2.16-5.22-.06-3.62,2.12,3.58,4.89,3.84,11.22-.83,15.57-3.23,3-7.85,4.94-11.64,7.12-2.34,1.35-.23,5,2.12,3.62Z"/></g><g id="_Group_77" data-name="&lt;Group&gt;"><path id="_Path_70" data-name="&lt;Path&gt;" class="cls-1" d="M267.12,143.44c-7,8.05-9.2,17.51-12,27.55-.72,2.61,3.33,3.72,4,1.12,2.56-9.22,4.47-18.26,10.9-25.7,1.76-2-1.2-5-3-3Z"/></g><g id="_Group_78" data-name="&lt;Group&gt;"><path id="_Path_71" data-name="&lt;Path&gt;" class="cls-1" d="M275.79,160.2a27.31,27.31,0,0,1,7.7,10.62c1,2.48,5,1.4,4-1.12a31.62,31.62,0,0,0-8.78-12.47c-2-1.75-5,1.2-3,3Z"/></g><g id="_Group_79" data-name="&lt;Group&gt;"><path id="_Path_72" data-name="&lt;Path&gt;" class="cls-1" d="M286,158l2.94,4.43a2.15,2.15,0,0,0,2.87.75,2.12,2.12,0,0,0,.75-2.87l-2.94-4.43a2.15,2.15,0,0,0-2.87-.75A2.12,2.12,0,0,0,286,158Z"/></g><g id="_Group_80" data-name="&lt;Group&gt;"><path id="_Path_73" data-name="&lt;Path&gt;" class="cls-1" d="M243,173.42a15.44,15.44,0,0,1-10.42-5.47c-1.77-2-4.73.93-3,3a19.68,19.68,0,0,0,13.39,6.7c2.69.24,2.67-4,0-4.2Z"/></g><g id="_Group_81" data-name="&lt;Group&gt;"><path id="_Path_74" data-name="&lt;Path&gt;" class="cls-1" d="M279.68,121.78l-5.13-6.25a2.11,2.11,0,0,0-3,0,2.15,2.15,0,0,0,0,3l5.13,6.25a2.11,2.11,0,0,0,3,0,2.15,2.15,0,0,0,0-3Z"/></g></g><g id="_Group_82" data-name="&lt;Group&gt;"><path id="_Path_75" data-name="&lt;Path&gt;" class="cls-1" d="M234.57,147.24a35.57,35.57,0,0,0-7.71,6.34c-1.82,2,1.14,5,3,3a31.51,31.51,0,0,1,6.86-5.68c2.3-1.41.19-5-2.12-3.62Z"/></g><g id="_Group_83" data-name="&lt;Group&gt;"><path id="_Path_76" data-name="&lt;Path&gt;" class="cls-1" d="M234.47,153.92a30.17,30.17,0,0,0-7.12,7,2.11,2.11,0,0,0,.75,2.87A2.15,2.15,0,0,0,231,163a24.12,24.12,0,0,1,5.62-5.49c2.2-1.54.1-5.18-2.12-3.62Z"/></g><g id="_Group_84" data-name="&lt;Group&gt;"><path id="_Path_77" data-name="&lt;Path&gt;" class="cls-1" d="M234.81,161.7l-7,6.28c-2,1.8,1,4.76,3,3l7-6.28c2-1.8-1-4.76-3-3Z"/></g></g><g id="_Group_85" data-name="&lt;Group&gt;"><g id="_Group_86" data-name="&lt;Group&gt;"><g id="_Group_87" data-name="&lt;Group&gt;"><path id="_Path_78" data-name="&lt;Path&gt;" class="cls-1" d="M222.61,30.87c18.48,11.77,9.39,38.62-2.28,52.06-10.68,12.3-37.54,20-44.35-.69-1.68-5.11-9.79-2.92-8.09,2.23,8.35,25.37,40.79,22.44,56.59,6.33C241.38,73.55,251,39,226.85,23.62c-4.57-2.91-8.79,4.35-4.24,7.25Z"/></g><g id="_Group_88" data-name="&lt;Group&gt;"><path id="_Path_79" data-name="&lt;Path&gt;" class="cls-1" d="M227.54,26.29C228.48,16.2,219,10.75,210,11.72c-9.82,1-19.24,7.18-26,14.1C168.65,41.4,160.75,66.4,169,87.24c2,5,10.08,2.81,8.09-2.23-5.56-14.13-2.79-29.47,4.66-42.39a50.56,50.56,0,0,1,14.68-16.43c4.51-3.13,23.93-12.51,22.75.11-.5,5.38,7.9,5.34,8.39,0Z"/></g><g id="_Group_89" data-name="&lt;Group&gt;"><path id="_Path_80" data-name="&lt;Path&gt;" class="cls-1" d="M186.6,46.1a78.27,78.27,0,0,1,7.93-13.78C198,27.39,202,20,208.78,19.84c2.7-.06,2.71-4.25,0-4.2-6.07.13-9.89,3.88-13.42,8.48C190.59,30.33,186.11,36.77,183,44c-1.07,2.45,2.55,4.59,3.62,2.12Z"/></g><g id="_Group_90" data-name="&lt;Group&gt;"><path id="_Path_81" data-name="&lt;Path&gt;" class="cls-1" d="M180.28,53a40.69,40.69,0,0,0-.63,10.19c.18,2.68,4.38,2.7,4.2,0a36.21,36.21,0,0,1,.48-9.07c.49-2.64-3.56-3.77-4-1.12Z"/></g><g id="_Group_91" data-name="&lt;Group&gt;"><path id="_Path_82" data-name="&lt;Path&gt;" class="cls-1" d="M180.87,73.93a14.85,14.85,0,0,0,9.76,11.8c2.54.94,3.63-3.12,1.12-4a10.78,10.78,0,0,1-6.83-8.87c-.36-2.66-4.41-1.53-4,1.12Z"/></g><g id="_Group_92" data-name="&lt;Group&gt;"><path id="_Path_83" data-name="&lt;Path&gt;" class="cls-1" d="M193.73,90.67c2.6,3.92,6,7.46,11.07,7.48,2.7,0,2.7-4.19,0-4.2-3.44,0-5.7-2.76-7.45-5.4-1.49-2.24-5.12-.14-3.62,2.12Z"/></g><g id="_Group_93" data-name="&lt;Group&gt;"><path id="_Path_84" data-name="&lt;Path&gt;" class="cls-1" d="M213.37,54.72c5.14-3,11.77-5.6,14.76-11.07a14.92,14.92,0,0,0-1.39-16.17c-1.58-2.16-5.22-.06-3.62,2.12,3.39,4.62,3.65,10.61-.78,14.73-3.07,2.86-7.48,4.7-11.08,6.78-2.34,1.35-.23,5,2.12,3.62Z"/></g><g id="_Group_94" data-name="&lt;Group&gt;"><path id="_Path_85" data-name="&lt;Path&gt;" class="cls-1" d="M205.86,56.77c-6.65,7.69-8.79,16.72-11.45,26.31-.72,2.61,3.33,3.72,4,1.12,2.43-8.77,4.25-17.39,10.37-24.46,1.76-2-1.2-5-3-3Z"/></g><g id="_Group_95" data-name="&lt;Group&gt;"><path id="_Path_86" data-name="&lt;Path&gt;" class="cls-1" d="M214.12,72.89A25.94,25.94,0,0,1,221.44,83c1,2.48,5,1.4,4-1.12a30.26,30.26,0,0,0-8.39-11.94c-2-1.75-5,1.2-3,3Z"/></g><g id="_Group_96" data-name="&lt;Group&gt;"><path id="_Path_87" data-name="&lt;Path&gt;" class="cls-1" d="M223.87,70.82l2.8,4.22a2.15,2.15,0,0,0,2.87.75,2.12,2.12,0,0,0,.75-2.87l-2.8-4.22a2.15,2.15,0,0,0-2.87-.75,2.12,2.12,0,0,0-.75,2.87Z"/></g><g id="_Group_97" data-name="&lt;Group&gt;"><path id="_Path_88" data-name="&lt;Path&gt;" class="cls-1" d="M182.89,85.33A14.63,14.63,0,0,1,173,80.15c-1.77-2-4.73.93-3,3a18.86,18.86,0,0,0,12.84,6.42c2.69.24,2.67-4,0-4.2Z"/></g><g id="_Group_98" data-name="&lt;Group&gt;"><path id="_Path_89" data-name="&lt;Path&gt;" class="cls-1" d="M218,36.13l-4.89-6a2.11,2.11,0,0,0-3,0,2.15,2.15,0,0,0,0,3l4.89,6a2.11,2.11,0,0,0,3,0,2.15,2.15,0,0,0,0-3Z"/></g></g><g id="_Group_99" data-name="&lt;Group&gt;"><path id="_Path_90" data-name="&lt;Path&gt;" class="cls-1" d="M174.84,60.38a34,34,0,0,0-7.37,6.06c-1.82,2,1.14,5,3,3A30,30,0,0,1,177,64c2.3-1.41.19-5-2.12-3.62Z"/></g><g id="_Group_100" data-name="&lt;Group&gt;"><path id="_Path_91" data-name="&lt;Path&gt;" class="cls-1" d="M174.74,66.75a28.91,28.91,0,0,0-6.83,6.71,2.11,2.11,0,0,0,.75,2.87,2.15,2.15,0,0,0,2.87-.75,22.86,22.86,0,0,1,5.32-5.2,2.16,2.16,0,0,0,.75-2.87,2.12,2.12,0,0,0-2.87-.75Z"/></g><g id="_Group_101" data-name="&lt;Group&gt;"><path id="_Path_92" data-name="&lt;Path&gt;" class="cls-1" d="M175,74.19l-6.72,6c-2,1.8,1,4.76,3,3l6.72-6c2-1.8-1-4.76-3-3Z"/></g></g><g id="_Group_102" data-name="&lt;Group&gt;"><g id="_Group_103" data-name="&lt;Group&gt;"><g id="_Group_104" data-name="&lt;Group&gt;"><path id="_Path_93" data-name="&lt;Path&gt;" class="cls-1" d="M83.88,98.59c15-17.11,41.75-3.39,53.11,10.74,10.74,13.37,18.31,40.05,3.33,52.93-4.1,3.53,1.86,9.44,5.94,5.94,10.39-8.94,10.67-20.27,9.9-33.25-.74-12.42-5.74-22.7-13.7-32.19C128,85.5,95.72,72.34,77.94,92.65c-3.55,4,2.37,10,5.94,5.94Z"/></g><g id="_Group_105" data-name="&lt;Group&gt;"><path id="_Path_94" data-name="&lt;Path&gt;" class="cls-1" d="M78.64,92.89c-29.48,10.47-7.75,46.52,4.73,61.54,8.33,10,19.42,19.29,32.38,22.41,12.47,3,24.06-2.43,33-10.89,3.94-3.71-2-9.64-5.94-5.94-7.54,7.11-16.81,11.27-27.15,8.08-8.91-2.75-16.58-8.86-22.85-15.58a105.75,105.75,0,0,1-16-22.5c-4.64-8.8-8.62-24.54,4-29,5.06-1.79,2.88-9.91-2.23-8.09Z"/></g><g id="_Group_106" data-name="&lt;Group&gt;"><path id="_Path_95" data-name="&lt;Path&gt;" class="cls-1" d="M90.77,99.26c2.36-2.76,3.32-6.09,4.1-9.58.58-2.63-3.46-3.76-4-1.12s-1.18,5.58-3,7.73,1.21,5,3,3Z"/></g><g id="_Group_107" data-name="&lt;Group&gt;"><path id="_Path_96" data-name="&lt;Path&gt;" class="cls-1" d="M78.19,101.87c5.58,4.1,11.36,6.73,15.12,12.87,2.76,4.49,4.87,9.28,8,13.56a43.65,43.65,0,0,0,19.4,15.35c2.51,1,3.6-3.06,1.12-4-11.43-4.54-18-14.19-23.66-24.59-4.62-8.53-10.24-11.16-17.87-16.77-2.18-1.6-4.28,2-2.12,3.62Z"/></g><g id="_Group_108" data-name="&lt;Group&gt;"><path id="_Path_97" data-name="&lt;Path&gt;" class="cls-1" d="M98.55,123.25c4.52,7,11.54,9.75,18.85,13.17,12.93,6,20.87,13.87,21.11,28.87,0,2.7,4.24,2.71,4.2,0-.17-10.54-2.73-18.76-11.23-25.51-8.89-7.07-22.93-8.76-29.3-18.65-1.46-2.26-5.09-.16-3.62,2.12Z"/></g><g id="_Group_109" data-name="&lt;Group&gt;"><path id="_Path_98" data-name="&lt;Path&gt;" class="cls-1" d="M143.72,148.43a34.54,34.54,0,0,0,8.38-.86c2.63-.6,1.52-4.64-1.12-4a29.75,29.75,0,0,1-7.26.71c-2.7-.06-2.7,4.14,0,4.2Z"/></g><g id="_Group_110" data-name="&lt;Group&gt;"><path id="_Path_99" data-name="&lt;Path&gt;" class="cls-1" d="M120.53,103.59a45,45,0,0,1,13.17,11.54c1.62,2.12,5.27,0,3.62-2.12a50.15,50.15,0,0,0-14.68-13c-2.34-1.36-4.45,2.26-2.12,3.62Z"/></g><g id="_Group_111" data-name="&lt;Group&gt;"><path id="_Path_100" data-name="&lt;Path&gt;" class="cls-1" d="M137,121.12a24.73,24.73,0,0,1,1.46,3,7.74,7.74,0,0,1,.88,2.9c-.22,2.69,4,2.68,4.2,0a9.78,9.78,0,0,0-1-4,31.65,31.65,0,0,0-1.89-4c-1.33-2.35-5-.24-3.62,2.12Z"/></g><g id="_Group_112" data-name="&lt;Group&gt;"><path id="_Path_101" data-name="&lt;Path&gt;" class="cls-1" d="M96.68,152.93a45.64,45.64,0,0,0,7.86,6.32c2.28,1.46,4.39-2.17,2.12-3.62a40.61,40.61,0,0,1-7-5.66c-1.91-1.92-4.87,1-3,3Z"/></g></g><g id="_Group_113" data-name="&lt;Group&gt;"><path id="_Path_102" data-name="&lt;Path&gt;" class="cls-1" d="M74.36,107A55.21,55.21,0,0,0,66.75,124c-.68,2.62,3.37,3.73,4,1.12A51.63,51.63,0,0,1,78,109.16c1.51-2.25-2.12-4.35-3.62-2.12Z"/></g><g id="_Group_114" data-name="&lt;Group&gt;"><path id="_Path_103" data-name="&lt;Path&gt;" class="cls-1" d="M77,114.38a54.09,54.09,0,0,0-8,14.12c-1,2.53,3.09,3.62,4,1.12A47.4,47.4,0,0,1,80,117.35c1.64-2.1-1.31-5.09-3-3Z"/></g><g id="_Group_115" data-name="&lt;Group&gt;"><path id="_Path_104" data-name="&lt;Path&gt;" class="cls-1" d="M81.24,124.32a37.93,37.93,0,0,0-6.95,15.12c-.57,2.63,3.48,3.76,4,1.12a35.14,35.14,0,0,1,6.53-14.12c1.64-2.15-2-4.24-3.62-2.12Z"/></g><g id="_Group_116" data-name="&lt;Group&gt;"><path id="_Path_105" data-name="&lt;Path&gt;" class="cls-1" d="M122.16,161.4a30.65,30.65,0,0,1-8.83,10.6c-2.13,1.6,0,5.25,2.12,3.62a35.2,35.2,0,0,0,10.34-12.11c1.23-2.4-2.39-4.52-3.62-2.12Z"/></g><g id="_Group_117" data-name="&lt;Group&gt;"><path id="_Path_106" data-name="&lt;Path&gt;" class="cls-1" d="M128.27,165a28.29,28.29,0,0,1-4.62,8.71c-1.65,2.1,1.3,5.09,3,3a34.07,34.07,0,0,0,5.7-10.56c.84-2.57-3.21-3.68-4-1.12Z"/></g></g></g></g></g></g></svg>